# xmcd
#
# Track frame offsets: 
#        150
#        11869
#        24688
#        38662
#        53691
#        77655
#        86759
#        104183
#        120347
#        134696
#        147300
#        162169
#        176778
#        186167
#        197121
#        214035
#        224019
#        239373
#        248037
#        262586
#
# Disc length: 3676 seconds
#
# Revision: 0
# Processed by: cddbd v1.5.2PL0 Copyright (c) Steve Scherf et al.
# Submitted via: ExactAudioCopy v0.99pb5
#
DISCID=240e5a14
DTITLE=Willie Nelson - 2001-07-14 Live At Red Rocksd1
DYEAR=2001
DGENRE=Alt-Country\Country
TTITLE0=Whiskey River
TTITLE1=Stay All Night (Stay A Little Longer)
TTITLE2=Good Hearted Woman
TTITLE3=Funny How Time Slips Away
TTITLE4=Crazy
TTITLE5=Down Yonder
TTITLE6=Workingman's Blues
TTITLE7=Help Me Make It Through The Night
TTITLE8=Me and Bobby McGee
TTITLE9=Fast Train To Georgia
TTITLE10=Blue Sky
TTITLE11=Georgia On My Mind
TTITLE12=All Of Me
TTITLE13=Mamas, Don't Let Your Babies Grow Up To Be Cowboys
TTITLE14=Angel Flying Too Close To The Ground
TTITLE15=On The Road Again
TTITLE16=You Were Always On My Mind
TTITLE17=I'll Fly Away
TTITLE18=I Saw The Light
TTITLE19=Seven Spanish Angels
EXTD=
EXTT0=
EXTT1=
EXTT2=
EXTT3=
EXTT4=
EXTT5=
EXTT6=
EXTT7=
EXTT8=
EXTT9=
EXTT10=
EXTT11=
EXTT12=
EXTT13=
EXTT14=
EXTT15=
EXTT16=
EXTT17=
EXTT18=
EXTT19=
PLAYORDER=
